<svg width="7135" height="5989" viewBox="0 0 7135 5989" fill="none" xmlns="http://www.w3.org/2000/svg">
<path d="M908.934 78.3426C923.188 70.6796 940.108 69.1075 955 75.4427C1050.2 115.944 1112.02 190.265 1166.87 264.324C1174.32 274.385 1182.53 283.869 1191.62 292.479C1213.65 313.353 1236.16 333.818 1259.03 354.142C1283.75 378.955 1283.75 378.955 1301.3 408.653C1312.56 429.349 1316.51 436.605 1332.47 445.639C1357.06 459.556 1379.21 477.635 1392.79 502.41C1423.68 547.945 1444.37 564.908 1493.01 596.555C1570.75 648.446 1608.95 705.148 1653.82 776.853C1690.54 825.303 1721.79 858.257 1772.43 891.02C1786.72 900.268 1798.25 913.104 1804.76 928.839C1809.74 940.897 1817.75 951.673 1827.9 959.864C1832.97 963.952 1838.08 968.07 1843.26 972.249C1876.1 998.731 1899.82 1022.53 1925.87 1053.07C1954.22 1086.04 1980.53 1111.37 2016.18 1140.11C2059.92 1175.38 2092.63 1211.13 2124.48 1253.16C2127.84 1257.59 2129.63 1262.94 2129.63 1268.51C2129.63 1280.22 2137.49 1290.55 2148.8 1293.59C2155.58 1295.41 2160.48 1296.73 2168.7 1298.94C2177.73 1301.37 2185.98 1306.15 2192.54 1312.81C2210.26 1330.83 2213.77 1335.15 2238.67 1365.71C2294.9 1433.05 2355.87 1495.66 2420.33 1557.99C2429.9 1568.42 2436.01 1575.07 2439.92 1580.67C2452.25 1598.33 2460.57 1619.93 2480.98 1626.83C2497.75 1634.61 2506.78 1638.81 2513.37 1645.25C2535.28 1666.67 2547.44 1696.41 2571.29 1715.64C2580.23 1722.85 2589.17 1730.06 2598.28 1737.41C2602.8 1741.06 2605.43 1746.48 2605.43 1752.29C2605.43 1762.91 2614.04 1771.6 2624.66 1771.6C2625.29 1771.6 2625.92 1771.6 2626.56 1771.6C2635.1 1771.6 2642.81 1776.75 2646.08 1784.65C2648.51 1790.55 2650.96 1796.47 2653.43 1802.45C2656.63 1810.18 2661.72 1816.98 2668.23 1822.23C2679.11 1831.01 2690.06 1839.84 2701.26 1848.87C2730.02 1872.06 2745.86 1889.01 2761.41 1911.04C2775.57 1931.1 2791.42 1950 2810.54 1965.42C2814.11 1968.29 2817.69 1971.18 2821.31 1974.1C2879.91 2021.35 2926.86 2072.96 2975.51 2126.86C2985.32 2136.79 2995.13 2146.72 3005.24 2156.95C3009.04 2161.34 3012.21 2165.01 3014.86 2168.21C3035.1 2192.7 3022.05 2231.37 2996.65 2250.46C2992.78 2253.37 2988.06 2256.73 2982.12 2260.98C2959.48 2277.77 2954.44 2281.52 2956.13 2298.89C2957.36 2311.57 2960.91 2323.95 2965.6 2335.79C2973.71 2356.27 2979.15 2360.08 3007.38 2379.88C3064.53 2426.05 3106.44 2479.95 3151.73 2533.81C3183.97 2564.53 3199.19 2575.06 3240.64 2579.99C3249.68 2581.07 3257.47 2573.94 3257.47 2564.83C3257.47 2557.97 3261.93 2551.79 3268.52 2549.88C3425.93 2504.31 3608.04 2512.2 3768.79 2549.07C3780.36 2551.73 3791.63 2555.53 3802.55 2560.18C3808.9 2562.89 3815.3 2565.62 3821.8 2568.39C3832.15 2572.96 3839.75 2576.32 3846.58 2578.72C3895.99 2596.05 3948.63 2562.24 3982.77 2522.53C3991.5 2512.36 4000.05 2501.94 4008.63 2491.01C4043.86 2447.56 4062.52 2424.54 4076.3 2409.21C4101.39 2381.3 4118.41 2345.41 4107.13 2309.61C4101.64 2276.74 4099.31 2256.94 4111.38 2231.51C4118.06 2217.43 4128.81 2205.78 4140.37 2195.32C4165.39 2172.69 4191.47 2151.53 4218.99 2130.42C4229.96 2121.42 4240.92 2112.43 4252.21 2103.16C4316.85 2050.76 4384.89 2003.09 4455.8 1956.34C4498.97 1922.35 4541 1887.77 4582.46 1852.42C4606.55 1834.34 4612.47 1829.89 4629.04 1828.8C4640.82 1828.02 4650.81 1819.77 4652.39 1808.08C4652.68 1805.92 4653.27 1803.76 4654.18 1801.79C4675.05 1756.44 4714.46 1728.59 4757.17 1695.44C4766.24 1688.22 4775.31 1681 4784.65 1673.56C4813.69 1650.48 4842.9 1627.54 4872.13 1604.62C4910.24 1574.56 4948.27 1544.42 4986.26 1514.25C4995.43 1507 5004.6 1499.75 5014.04 1492.29C5075.58 1443.28 5133.04 1392.63 5187.36 1338.38C5204.97 1323.92 5222.52 1314.17 5241.81 1305.55C5268.86 1293.47 5292.79 1275.03 5308.26 1249.77C5315.64 1237.73 5324.7 1226.77 5335.27 1217.41C5391.72 1167.42 5399.6 1162.83 5448.36 1149.55C5455.38 1147.64 5460.28 1141.37 5460.28 1134.1C5460.28 1125.21 5467.48 1117.91 5476.37 1117.91C5478.42 1117.91 5480.48 1117.91 5482.55 1117.91C5490.57 1117.91 5497.97 1113.6 5501.92 1106.62C5504.62 1101.85 5507.34 1097.05 5510.1 1092.17C5530.19 1061.94 5549.66 1042.23 5579.51 1018.09C5589.27 1010.13 5599.03 1002.16 5609.09 993.96C5619.59 985.55 5630.09 977.14 5640.91 968.475C5651.73 959.723 5662.55 950.972 5673.69 941.956C5696.52 923.528 5719.4 905.136 5742.31 886.777C5777.48 858.568 5812.46 830.209 5847.42 801.833C5869.62 783.949 5891.84 766.075 5914.06 748.21C5924.56 739.684 5935.06 731.159 5945.88 722.376C6002.67 677.099 6016.04 666.446 6036.75 663.939C6049.63 662.381 6060.64 653.567 6062.23 640.695C6062.57 637.974 6063.35 635.26 6064.52 632.783C6065.23 631.298 6065.93 629.813 6066.64 628.326C6073.29 614.286 6085.45 603.62 6100.24 598.851C6108.96 596.037 6117.69 593.223 6126.41 590.408C6150.74 582.56 6169.84 563.459 6177.34 539.017C6180.96 527.212 6187.16 516.32 6195.77 507.473C6206.64 496.316 6211.75 492.165 6232.78 475.099C6247.84 462.871 6247.84 462.871 6263.2 450.397C6273.75 442.062 6284.29 433.727 6295.15 425.139C6310.75 412.307 6310.75 412.307 6326.67 399.216C6336.76 391.138 6346.85 383.059 6357.24 374.736C6366.45 367.358 6375.66 359.98 6385.14 352.379C6403 341.659 6408.94 338.096 6426.65 336.912C6451.41 335.257 6476.07 343.382 6495.9 358.293C6506.25 366.072 6513.27 372.425 6527.62 385.953C6532.49 390.544 6535.25 396.867 6535.25 403.56C6535.25 414.226 6542.19 423.74 6552.38 426.899C6555.21 427.777 6558.57 428.82 6563.89 430.468C6619.23 456.306 6664.64 489.997 6705.49 529.422C6709.34 533.141 6711.48 538.209 6711.48 543.565C6711.48 554.639 6720.45 563.693 6731.53 563.693C6732.55 563.693 6733.58 563.693 6734.61 563.693C6742.2 563.693 6749.3 567.414 6753.62 573.649C6758.25 580.322 6762.9 587.039 6767.65 593.891C6796.36 630.613 6816.34 648.031 6856.86 674.714C6917.72 714.847 6967.85 759.288 7018.49 807.661C7064.24 850.486 7084.26 920.568 7032.26 955.535C7029.38 957.467 7026.36 959.478 7023.18 961.592C7012.09 968.956 7001 976.32 6989.58 983.907C6979.22 990.611 6968.87 997.316 6958.19 1004.22C6944.74 1013.02 6931.3 1021.81 6917.44 1030.87C6896.18 1042.3 6890.12 1045.55 6875.52 1046.48C6861.59 1047.37 6848.98 1055.27 6843.65 1068.17C6843.41 1068.75 6843.17 1069.33 6842.93 1069.91C6838.03 1081.76 6826.47 1089.49 6813.65 1089.49C6808.47 1089.49 6803.28 1089.49 6798.05 1089.49C6789.17 1089.49 6781.97 1096.58 6781.97 1105.47C6781.97 1112.74 6777.08 1119.22 6770.06 1121.11C6759.82 1123.86 6749.53 1126.63 6739.01 1129.45C6729.68 1132.94 6720.34 1136.43 6710.89 1139.96C6700.03 1144.02 6691.34 1152.42 6686.91 1163.14C6685.15 1167.38 6683.4 1171.63 6681.63 1175.91C6678.36 1183.81 6670.66 1188.96 6662.11 1188.96C6661.01 1188.96 6659.91 1188.96 6658.81 1188.96C6648.97 1188.96 6640.99 1196.83 6640.99 1206.68C6640.99 1213.21 6637.42 1219.33 6631.68 1222.44C6604.73 1237.06 6577.7 1251.58 6550.62 1266.03C6540.4 1271.49 6530.75 1277.94 6521.82 1285.32C6511.37 1293.96 6500.84 1302.65 6490.1 1311.53C6451.5 1341.86 6422.28 1356.25 6375.76 1369.25C6365.96 1372 6359.03 1380.72 6359.03 1390.9C6359.03 1397.89 6355.73 1404.61 6350.1 1408.77C6296.86 1448.12 6250.19 1476.7 6182.79 1496.69C6172.48 1499.75 6165.18 1509 6165.18 1519.75C6165.18 1526.24 6162.52 1532.58 6157.74 1536.96C6106.26 1584.29 6061.83 1608.67 5988.29 1625.78C5978.45 1628.07 5971.33 1636.63 5971.33 1646.73C5971.33 1653.67 5967.95 1660.29 5962.25 1664.25C5925.53 1689.76 5888.63 1713.94 5850.18 1737.85C5838.71 1745.18 5827.23 1752.5 5815.41 1760.05C5759.01 1795.5 5739.51 1807.76 5721.61 1811.99C5702.53 1816.51 5684.55 1825.9 5677.06 1844.02C5673.63 1852.32 5667.85 1859.69 5660.57 1864.95C5604.55 1905.43 5593.57 1912.3 5567.09 1913.47C5556.78 1913.92 5548.39 1921.97 5548.39 1932.3C5548.39 1938.39 5545.42 1944.21 5540.42 1947.69C5503.33 1973.48 5466.07 1997.92 5427.24 2022.06C5415.77 2029.39 5404.29 2036.72 5392.47 2044.27C5336.07 2079.71 5316.57 2091.97 5298.67 2096.21C5279.59 2100.72 5261.61 2110.11 5254.12 2128.23C5250.69 2136.53 5244.91 2143.9 5237.63 2149.16C5181.56 2189.68 5170.61 2196.52 5144.09 2197.68C5133.81 2198.13 5125.45 2206.15 5125.45 2216.44C5125.45 2222.57 5122.43 2228.43 5117.37 2231.9C5091.66 2249.57 5088.17 2251.64 5048.35 2275.19C5012.39 2296.5 4986.84 2312.69 4962.44 2335.43C4940.63 2355.76 4917.95 2375.55 4891.13 2388.56C4875.36 2396.22 4859.47 2403.72 4843.49 2411.08C4830.77 2418.99 4818.05 2426.91 4804.94 2435.06C4779.99 2449.63 4774.53 2452.82 4756.53 2453.51C4746.17 2453.92 4737.76 2462.01 4737.76 2472.38C4737.76 2478.44 4734.85 2484.23 4729.9 2487.72C4703.88 2506.09 4676.98 2523.67 4649.64 2540.75C4633.29 2551.05 4616.93 2561.34 4600.08 2571.95C4575.59 2587.11 4545.66 2591.02 4518.21 2582.29C4509.27 2579.45 4502.04 2577.08 4496.04 2575.01C4467.63 2565.15 4439.8 2551.14 4409.73 2550.27C4367.53 2549.05 4335.84 2553.91 4294.15 2572.96C4284.13 2577.54 4274.73 2583.38 4265.77 2589.79C4253.98 2598.22 4242.12 2606.69 4230.01 2615.36C4213.54 2626.9 4197.07 2638.44 4180.1 2650.33C4133.41 2680.83 4123.38 2687.38 4110.72 2715.4C4102.29 2734.07 4096.62 2755.15 4101.56 2775.04C4104.42 2786.51 4110.92 2794.63 4127.07 2811.37C4134.4 2818.97 4138.59 2829.1 4138.59 2839.66C4138.59 2847.1 4138.59 2854.55 4138.59 2862.07C4138.59 2871.99 4146.5 2880.03 4156.42 2880.03C4166.07 2880.03 4174.14 2887.79 4174.51 2897.44C4183.3 3127.24 4182.2 3136.16 4125.96 3240.29C4122.9 3245.95 4117.06 3249.51 4110.62 3249.51C4098.52 3249.51 4089.98 3261.48 4094.62 3272.66C4133.52 3366.44 4200.29 3439.91 4297.16 3499.23C4320.09 3513.28 4346.09 3522.03 4372.97 3522.94C4404.43 3524 4430.49 3520.48 4463.33 3512.86C4476.67 3509.77 4490.21 3507.19 4503.91 3506.94C4526.83 3506.52 4534.92 3511.07 4569.83 3534.17C4573.81 3536.81 4577.59 3539.88 4580.98 3543.25C4600.39 3562.51 4608.52 3571.01 4611.94 3580.06C4616.8 3592.96 4625.46 3604.77 4639.26 3604.77C4645.83 3604.77 4652.28 3607.36 4656.94 3612C4671.66 3626.62 4674.4 3629.87 4695.9 3655.4C4743.12 3707.84 4793.55 3747.24 4854.85 3788.73C4907.75 3825.94 4957.75 3865.15 5007.6 3904.97C5016.69 3912.12 5025.78 3919.27 5035.15 3926.64C5078.75 3961.69 5113.01 3996.2 5144.13 4036.88C5155.45 4051.67 5167.85 4065.66 5182.2 4077.53C5203.99 4095.54 5226.22 4113.21 5248.81 4130.57C5261.53 4141.12 5274.25 4151.67 5287.36 4162.54C5331.78 4197.57 5377.38 4230.64 5423.93 4263.79C5492.87 4313.56 5554.7 4363.43 5611.8 4421.7C5616.37 4426.36 5618.88 4432.54 5618.88 4439.06C5618.88 4449.96 5625.88 4459.71 5636.23 4463.11C5639.26 4464.11 5642.82 4465.28 5648.62 4467.18C5744.91 4511.25 5814.09 4589.81 5885.56 4656.53C5916.33 4684.92 5918.83 4687.22 5959.6 4707.41C5966.76 4710.96 5971.33 4718.16 5971.33 4726.15C5971.33 4735.3 5977.26 4743.5 5985.98 4746.27C5990.06 4747.56 5993.95 4748.79 6002.17 4751.4C6046.27 4772.14 6069.87 4797.43 6099.65 4828.16C6108.04 4836.81 6117.21 4844.65 6127.04 4851.62C6159.18 4874.42 6191.85 4896.58 6224.93 4918.54C6231.44 4923.59 6237.95 4928.65 6244.55 4933.78C6250.07 4938.07 6253.29 4944.57 6253.29 4951.55C6253.29 4961.79 6260.16 4970.84 6270.05 4973.5C6277.74 4975.57 6285.47 4977.65 6293.28 4979.74C6301.74 4982.02 6309.54 4986.32 6315.96 4992.29C6340.34 5014.94 6350.92 5025.49 6355.51 5036.53C6362.9 5054.32 6371.5 5072.42 6389.87 5078.24C6440.02 5101.83 6464.73 5130.88 6500.01 5167.94C6547.93 5208.68 6597.92 5246.19 6650.9 5282.52C6666.47 5293.26 6666.47 5293.26 6682.36 5304.22C6705.07 5319.86 6727.82 5335.46 6750.57 5351.06C6753.87 5353.32 6756.91 5355.85 6759.73 5358.69C6773.72 5372.79 6781.48 5393.08 6774.46 5411.66C6763.48 5440.69 6742.81 5460.06 6710.38 5485.02C6699.15 5493.69 6687.93 5502.35 6676.37 5511.28C6631.77 5544.23 6586.4 5576.37 6540.62 5608.25C6419.96 5693.35 6302.14 5780.92 6189.89 5873.2C6184.4 5877.53 6178.85 5881.75 6173.23 5885.86C6125.34 5920.91 6058.32 5930.79 6013.02 5892.46C5994.97 5877.2 5979.51 5858.96 5961.42 5836.73C5929.84 5798.23 5899.23 5765.06 5860.62 5732.55C5852.28 5725.53 5844.26 5718.15 5836.92 5710.1C5804.97 5675.09 5773.96 5639.61 5742.86 5604.09C5708.76 5565.9 5708.76 5565.9 5670.1 5536.09C5636.84 5509.27 5614.97 5483.9 5591.35 5451.27C5571.09 5423.36 5553.33 5399.22 5524.64 5376.55C5480.16 5340.09 5445.8 5297.71 5409.62 5255.87C5341.97 5177.72 5274.32 5101.47 5188.23 5035.61C5138.36 4993.43 5102.43 4948.81 5063.5 4899.94C5036.24 4866.31 5036.24 4866.31 4988.88 4830.44C4949.23 4798.47 4949.23 4798.47 4934.36 4766.55C4908.79 4717.44 4871.14 4678.97 4830.27 4637.71C4814.36 4621.4 4798.46 4605.08 4782.57 4588.75C4771.03 4576.95 4771.03 4576.95 4759.26 4564.92C4722.98 4527.39 4688.51 4488.8 4654.12 4450.14C4634.77 4430.02 4630.91 4426.01 4604.05 4412.66C4588.11 4404.73 4575.46 4391.63 4568.66 4375.18C4564.03 4363.97 4556.59 4353.95 4547.15 4346.34C4538.09 4339.04 4528.98 4331.68 4519.68 4324.19C4484.67 4295.96 4461.93 4270.04 4438.04 4239.01C4426.28 4223.75 4412.88 4209.8 4397.73 4197.89C4390.72 4192.38 4383.66 4186.82 4376.5 4181.19C4332.44 4144.78 4332.44 4144.78 4308.76 4105.37C4276.71 4055.02 4236.96 4014.16 4191.46 3971.59C4183.74 3964.19 4176.01 3956.8 4168.06 3949.19C4137.01 3919.66 4105.97 3891 4071.2 3864.28C4058.24 3853.07 4050.85 3835.9 4055.98 3819.55C4060.56 3804.96 4067.39 3792.95 4076.58 3780.3C4092.96 3757.75 4105.28 3731.96 4104.57 3704.09C4103.77 3672.17 4099.06 3641.42 4090.9 3609.46C4088.03 3598.21 4077.88 3590.56 4066.26 3590.56C4056.63 3590.56 4047.64 3585.26 4043.09 3576.76C4039.06 3569.24 4036.77 3564.97 4029.55 3551.48C4004.3 3514.97 3985.56 3492.07 3953.42 3471.57C3925.86 3453.99 3892.49 3448.46 3859.9 3451.1C3816.85 3454.58 3776.52 3461.01 3732.24 3470.16C3592.71 3498.44 3437.59 3514.1 3301.52 3468.88C3248.79 3451.42 3226.96 3446.67 3187.15 3454.28C3163.49 3458.79 3140.97 3468.78 3121.83 3483.4C3110.96 3491.7 3103.81 3499.05 3085.65 3517.73C3075.2 3527.66 3064.75 3537.59 3053.98 3547.82C3028.97 3573.08 3025.72 3576.36 3015.76 3604.54C3012.71 3613.16 3004.74 3618.98 2995.6 3618.98C2984.36 3618.98 2974.87 3627.7 2974.17 3638.93C2971.42 3683.31 2973.03 3696.32 2991.74 3729.25C3003.67 3750.27 3011.99 3774.82 3002.36 3796.98C2985.52 3835.76 2946.47 3865.62 2911.29 3897.46C2907.1 3901.24 2903.55 3905.56 2900.58 3910.36C2892.14 3923.97 2878.78 3933.93 2863.31 3938.09C2862.3 3938.36 2861.29 3938.64 2860.27 3938.91C2843.67 3943.37 2829.26 3953.7 2819.7 3967.98C2808.61 3984.55 2797.53 4001.13 2786.48 4017.71C2753.67 4058.05 2710.55 4084.39 2664.77 4114.97C2612.65 4152.22 2565.56 4192.3 2518.42 4233.59C2509.88 4240.98 2501.34 4248.37 2492.54 4255.98C2458.07 4286.45 2434.93 4308.85 2417.36 4345.04C2413.63 4352.73 2406.01 4357.94 2397.46 4357.94C2395.17 4357.94 2392.86 4357.94 2390.55 4357.94C2382.7 4357.94 2376.34 4364.19 2376.34 4372.04C2376.34 4379.89 2369.98 4386.36 2362.13 4386.36C2359.83 4386.36 2357.53 4386.36 2355.22 4386.36C2346.67 4386.36 2338.97 4391.51 2335.7 4399.41C2333.3 4405.21 2330.9 4411.04 2328.47 4416.91C2325.2 4424.83 2319.92 4431.77 2313.16 4437.02C2292.17 4453.32 2288.02 4456.07 2255.19 4477.84C2215.86 4503.99 2183.97 4526.85 2153.72 4560.05C2148.44 4565.58 2143.17 4571.12 2137.82 4576.72C2132.59 4582.21 2125.34 4585.31 2117.76 4585.31C2117.62 4585.31 2117.48 4585.31 2117.33 4585.31C2104.08 4585.31 2092.76 4594.81 2090.52 4607.88C2090.17 4609.96 2089.57 4612.06 2088.7 4613.99C2077.3 4639.19 2062.5 4651.54 2041.69 4664.22C2018.63 4678.28 1998.16 4696.13 1982.45 4718.09C1951.23 4758.66 1919.25 4782.89 1874.1 4813.57C1777.5 4881.83 1692.29 4955.89 1606.95 5033.04C1583.68 5053.94 1560.07 5074.59 1536.45 5095.23C1522.12 5107.79 1507.78 5120.36 1493.01 5133.31C1480.25 5144.46 1467.48 5155.62 1454.33 5167.11C1438.11 5181.41 1429.86 5188.68 1423.98 5197.45C1408.26 5220.9 1391.11 5243.96 1364.15 5252.32C1324.41 5265.61 1313.48 5275.29 1301.06 5295.11C1289.14 5314.15 1275.2 5331.87 1257.78 5346.07C1245.75 5355.87 1233.47 5365.48 1220.97 5374.89C1198.95 5391.46 1183.93 5403.03 1171.96 5416.57C1146.79 5445.05 1127.53 5479.41 1095.65 5500.11C1092.08 5502.43 1088.02 5505.06 1083.29 5508.11C1016.53 5553.66 957.115 5602.67 898.255 5654.66C889.864 5662.04 881.473 5669.42 872.828 5677.03C843.314 5703.31 816.554 5729.09 791.381 5757.27C779.286 5770.81 762.386 5779 744.231 5779C728.688 5779 713.52 5773.07 702.252 5762.36C683.631 5744.67 665.155 5726.88 647.065 5708.84C609.848 5675.76 569.85 5649.92 525.979 5622.69C450.55 5575.41 391.465 5526.31 332.132 5466.37C310.617 5445.84 288.952 5425.41 267.149 5405.09C252.326 5391.1 252.326 5391.1 237.204 5376.83C209.7 5351.83 207.416 5349.76 167.673 5330.07C160.49 5326.52 155.907 5319.29 155.907 5311.27C155.907 5302.14 150.011 5293.94 141.315 5291.13C136.501 5289.58 132.417 5288.26 122.865 5285.18C107.207 5277.76 95.8051 5270.85 86.7671 5263.32C58.2641 5239.59 72.666 5194.44 104.018 5174.63C130.448 5157.92 140.895 5154.57 158.543 5153.9C166.806 5153.59 173.529 5147.14 173.529 5138.87C173.529 5131.22 179.296 5124.69 186.901 5123.88C192.454 5123.28 198.041 5122.68 203.706 5122.07C205.613 5121.86 207.499 5121.5 209.343 5120.97C211.504 5120.36 213.666 5119.74 215.83 5119.13C233.925 5113.98 249.344 5102.06 258.888 5085.85C284.957 5045.44 318.246 5022.86 360.768 4992.98C376.647 4981.75 392.526 4970.52 408.886 4958.95C424.265 4948.2 439.644 4937.44 455.489 4926.36C467.416 4917.81 479.342 4909.25 491.629 4900.44C573.025 4842.14 657.155 4786.8 741.717 4731.52C802.123 4691.09 860.054 4648.73 917.598 4605.68C944.019 4588.5 948.153 4585.81 969.954 4585.39C977.801 4585.23 984.164 4579.05 984.164 4571.2C984.164 4563.36 990.527 4556.89 998.375 4556.89C999.511 4556.89 1000.65 4556.89 1001.79 4556.89C1011.52 4556.89 1019.41 4549 1019.41 4539.26C1019.41 4538.87 1019.41 4538.48 1019.41 4538.09C1019.41 4532.04 1022.31 4526.37 1027.23 4522.86C1055.1 4503.03 1083.86 4483.99 1113.03 4465.41C1180.91 4422.56 1180.91 4422.56 1243.75 4375.2C1261.22 4361.73 1265.05 4358.77 1282.65 4358.12C1292.98 4357.74 1301.37 4349.66 1301.37 4339.33C1301.37 4333.24 1304.34 4327.42 1309.32 4323.92C1330.74 4308.86 1334.2 4306.85 1368.56 4286.88C1381.03 4279.56 1393.5 4272.23 1406.35 4264.68C1428.27 4252.24 1450.42 4240.06 1472.67 4228C1487.24 4220.1 1498.61 4207.63 1504.94 4192.32C1510.06 4179.93 1518.56 4168.97 1529.55 4161.3C1542.48 4152.28 1548.78 4148.76 1573.42 4135.01C1584.3 4128.8 1595.18 4122.59 1606.39 4116.19C1624.59 4107.62 1631.67 4104.28 1642.45 4102.98C1660.19 4100.83 1676.73 4092.34 1685.21 4076.61C1708.41 4042.79 1731.81 4023.85 1768.37 3999.12C1779.09 3991.72 1789.81 3984.32 1800.86 3976.69C1825.47 3962.65 1829.33 3960.45 1851.08 3960.1C1858.93 3959.98 1865.29 3953.78 1865.29 3945.94C1865.29 3938.09 1871.65 3931.62 1879.5 3931.62C1880.64 3931.62 1881.77 3931.62 1882.91 3931.62C1892.64 3931.62 1900.53 3923.73 1900.53 3914C1900.53 3913.57 1900.53 3913.14 1900.53 3912.72C1900.53 3906.73 1903.39 3901.08 1908.21 3897.52C1938.11 3875.38 1941.42 3873.27 1986.44 3844.58C2002.39 3834.28 2018.34 3823.99 2034.77 3813.38C2061.2 3798.36 2070.99 3792.79 2083.41 3790.73C2099.02 3788.13 2112 3776.84 2112 3761.02C2112 3752.19 2116.08 3743.69 2123.04 3738.27C2153.69 3714.41 2158.43 3711.35 2206.73 3680.27C2224.31 3668.78 2241.89 3657.3 2260.01 3645.46C2289.66 3628.33 2300.14 3622.29 2313.37 3620.15C2330.22 3617.43 2346.03 3609.48 2353.9 3594.34C2380.89 3555.62 2412.49 3531.37 2453.44 3501.75C2467.02 3491.71 2480.61 3481.67 2494.61 3471.33C2531.74 3450.27 2534.69 3448.6 2589.93 3448.47C2598.47 3448.45 2605.43 3455.27 2605.43 3463.81C2605.43 3471.31 2610.81 3477.84 2618.21 3479.09C2655.3 3485.34 2691.31 3489.83 2728.61 3491C2751.89 3491.74 2775.03 3485.82 2795 3473.84C2812.9 3463.1 2821.13 3455.26 2839.86 3434.06C2848.07 3424.77 2856.98 3416.1 2866.6 3408.29C2871.57 3404.24 2875.66 3400.92 2885.47 3392.95C2924.91 3361.97 2942.53 3348.13 2953.77 3329.25C2977.33 3289.63 2966.5 3238.88 2945.83 3197.68C2941.48 3189.03 2937.56 3180.09 2934.85 3170.79C2917.68 3112 2918.95 3056.72 2920.44 2995.49C2920.6 2983 2920.75 2970.51 2920.92 2957.63C2921.24 2934.03 2921.69 2910.43 2922.18 2886.83C2922.43 2875.15 2931.84 2865.82 2943.52 2865.82C2952.14 2865.82 2960.09 2860.62 2963.45 2852.67C2981.55 2809.78 2988.71 2791.14 2991.49 2765.09C2996.21 2720.78 2976.12 2676.2 2940.36 2649.62C2934.52 2645.27 2927.68 2640.35 2918.9 2634.1C2909.68 2627.54 2900.93 2620.28 2892.89 2612.32C2881.74 2601.29 2870.73 2590.16 2859.86 2578.94C2830.04 2551.2 2812.43 2535.96 2782.45 2523.19C2759.2 2513.28 2733.41 2510.27 2708.33 2513.41C2698.59 2514.63 2688.9 2516.52 2669.32 2520.32C2609.4 2527.06 2595.39 2527.23 2551.47 2505.36C2537.46 2498.38 2524.5 2489.48 2512.53 2479.39C2502.49 2470.92 2492.38 2462.39 2482.08 2453.71C2467.54 2442.57 2453 2431.44 2438.02 2419.96C2404.79 2391.82 2374.02 2363.63 2343.3 2333.81C2307.38 2299.43 2270.67 2270 2227.65 2241.44C2169.43 2202.73 2122.6 2159.44 2074.01 2113.04C2029 2073.14 1978.8 2039.35 1927.04 2005.3C1921.15 2000.74 1915.26 1996.17 1909.3 1991.55C1903.77 1987.27 1900.53 1980.76 1900.53 1973.77C1900.53 1963.54 1893.67 1954.49 1883.79 1951.84C1876.37 1949.84 1868.91 1947.84 1861.39 1945.82C1853.29 1943.64 1847.67 1936.41 1847.67 1928.02C1847.67 1919.64 1842.04 1912.19 1833.94 1910.02C1824.83 1907.57 1815.67 1905.1 1806.4 1902.61C1798.75 1900.56 1791.62 1896.91 1785.52 1891.86C1770.76 1879.66 1767.38 1876.29 1745.31 1854.25C1685.13 1797.06 1621.11 1743.98 1555.17 1691.16C1544.58 1682.67 1533.99 1674.18 1523.08 1665.43C1489.96 1638.91 1456.8 1612.44 1423.63 1585.97C1379.68 1550.91 1335.79 1515.81 1291.94 1480.67C1282.08 1472.84 1272.22 1465 1262.06 1456.93C1203.51 1410.01 1148.63 1361.51 1095.6 1310.49C1043.63 1261.34 986.216 1218.52 924.688 1177.42C866.45 1137.86 818.801 1093.88 769.734 1047.08C736.185 1017.31 700.708 991.906 662.554 966.032C618.457 935.97 590.664 908.049 562.055 872.003C549.539 856.234 535.556 841.614 519.322 829.705C492.677 810.158 465.347 791.382 437.729 772.579C394.226 742.657 354.368 710.413 314.509 677.378C295.302 663.928 293.902 662.947 276.957 651.081C274.102 649.081 271.431 646.891 268.918 644.475C253.304 629.462 244.401 607.277 252.518 587.194C262.986 561.292 281.725 543.348 312.238 520.839C322.358 513.329 332.478 505.818 342.905 498.08C353.525 490.423 364.145 482.766 375.087 474.877C385.639 467 396.19 459.123 407.062 451.007C461.869 410.82 478.597 398.554 497.13 394.81C514.594 391.282 531.219 383.349 539.609 367.631C563.449 333.101 587.366 315.115 625.106 290.138C692.298 244.557 753.324 195.781 813.859 144.534C837.167 127.548 841.95 124.063 860.627 123.348C870.444 122.972 878.429 115.307 878.429 105.483C878.429 98.9345 882.027 92.8075 887.795 89.7068C894.814 85.9331 901.849 82.1512 908.934 78.3426Z" fill="#579246" stroke="#7EB24D" stroke-width="143"/>
</svg>
