<svg width="5104" height="8547" viewBox="0 0 5104 8547" fill="none" xmlns="http://www.w3.org/2000/svg">
<path d="M1277.49 813.225L1928.09 151.449C1954.78 124.295 1991.27 109 2029.35 109H2734.85C2771.46 109 2806.66 123.144 2833.1 148.478L3526.23 812.738C3554.18 839.521 3569.98 876.552 3569.98 915.26V1535.07C3569.98 1590.38 3537.86 1640.66 3487.67 1663.91L3125.44 1831.72L3814.01 6715.86H4482.05C4546.82 6715.86 4603.39 6759.68 4619.56 6822.4L4990.37 8260.55C5013.55 8350.42 4945.68 8438 4852.87 8438H251.072C162.546 8438 95.5992 8357.88 111.333 8270.76L371.072 6832.62C383.281 6765.02 442.122 6715.86 510.811 6715.86H1236.75L1658.79 1831.72L1316.47 1664.69C1267.69 1640.88 1236.75 1591.35 1236.75 1537.07V912.776C1236.75 875.534 1251.38 839.783 1277.49 813.225Z" fill="#569346"/>
<path d="M1658.79 1831.72L1316.47 1664.69C1267.69 1640.88 1236.75 1591.35 1236.75 1537.07V912.776C1236.75 875.534 1251.38 839.783 1277.49 813.225L1928.09 151.449C1954.78 124.295 1991.27 109 2029.35 109H2734.85C2771.46 109 2806.66 123.144 2833.1 148.478L3526.23 812.738C3554.18 839.521 3569.98 876.552 3569.98 915.26V1535.07C3569.98 1590.38 3537.86 1640.66 3487.67 1663.91L3125.44 1831.72M1658.79 1831.72L1236.75 6715.86M1658.79 1831.72L2384.73 2095.81C2417.95 2107.9 2454.49 2107.16 2487.2 2093.73L3125.44 1831.72M1236.75 6715.86H3814.01M1236.75 6715.86H510.811C442.122 6715.86 383.281 6765.02 371.072 6832.62L111.333 8270.76C95.5992 8357.88 162.546 8438 251.072 8438H4852.87C4945.68 8438 5013.55 8350.42 4990.37 8260.55L4619.56 6822.4C4603.39 6759.68 4546.82 6715.86 4482.05 6715.86H3814.01M3814.01 6715.86L3125.44 1831.72" stroke="#7EB24D" stroke-width="218" stroke-linejoin="round"/>
</svg>
